HIERARCHY
ROOT SpineBase
{
  OFFSET 0.000000 0.000000 0.000000
  CHANNELS 6 Xposition Yposition Zposition Zrotation Xrotation Yrotation
  JOINT SpineMid
  {
    OFFSET 0.000000 34.026323 0.000000
    CHANNELS 3 Zrotation Xrotation Yrotation
    JOINT SpineShoulder
    {
      OFFSET 0.378367 25.161640 -0.301688
      CHANNELS 3 Zrotation Xrotation Yrotation
      JOINT Neck
      {
        OFFSET 0.232385 8.316045 -0.375286
        CHANNELS 3 Zrotation Xrotation Yrotation
        JOINT Head
        {
          OFFSET 1.294207 12.871862 5.370808
          CHANNELS 3 Zrotation Xrotation Yrotation
          End Site
          {
            OFFSET 0 0 0
          }
        }
      }
      JOINT ShoulderLeft
      {
        OFFSET -14.574519 -6.112768 -24.605959
        CHANNELS 3 Zrotation Xrotation Yrotation
        JOINT ElbowLeft
        {
          OFFSET 17.026567 -17.278372 15.961115
          CHANNELS 3 Zrotation Xrotation Yrotation
          JOINT WristLeft
          {
            OFFSET 12.385876 -19.371149 10.485168
            CHANNELS 3 Zrotation Xrotation Yrotation
            JOINT HandLeft
            {
              OFFSET -6.639061 -3.293308 -0.331907
              CHANNELS 3 Zrotation Xrotation Yrotation
              JOINT HandTipLeft
              {
                OFFSET 0.776341 -5.116075 -0.599626
                CHANNELS 3 Zrotation Xrotation Yrotation
                End Site
                {
                  OFFSET 0 0 0
                }
              }
              JOINT ThumbLeft
              {
                OFFSET -1.916882 -1.176780 -5.542186
                CHANNELS 3 Zrotation Xrotation Yrotation
                End Site
                {
                  OFFSET 0 0 0
                }
              }
            }
          }
        }
      }
      JOINT ShoulderRight
      {
        OFFSET -2.133673 -5.852726 -13.336266
        CHANNELS 3 Zrotation Xrotation Yrotation
        JOINT ElbowRight
        {
          OFFSET -5.968713 -27.871825 -7.492813
          CHANNELS 3 Zrotation Xrotation Yrotation
          JOINT WristRight
          {
            OFFSET -10.721682 -19.862557 -4.000773
            CHANNELS 3 Zrotation Xrotation Yrotation
            JOINT HandRight
            {
              OFFSET -1.664381 -8.285946 2.560995
              CHANNELS 3 Zrotation Xrotation Yrotation
              JOINT HandTipRight
              {
                OFFSET -3.367588 -6.939771 0.550968
                CHANNELS 3 Zrotation Xrotation Yrotation
                End Site
                {
                  OFFSET 0 0 0
                }
              }
              JOINT ThumbRight
              {
                OFFSET 4.785182 -0.136211 2.835836
                CHANNELS 3 Zrotation Xrotation Yrotation
                End Site
                {
                  OFFSET 0 0 0
                }
              }
            }
          }
        }
      }
    }
  }
  JOINT HipLeft
  {
    OFFSET -5.156290 0.424316 -0.277355
    CHANNELS 3 Zrotation Xrotation Yrotation
    JOINT KneeLeft
    {
      OFFSET -1.101720 -39.885006 -2.299975
      CHANNELS 3 Zrotation Xrotation Yrotation
      JOINT AnkleLeft
      {
        OFFSET 0.981551 -37.689450 4.963076
        CHANNELS 3 Zrotation Xrotation Yrotation
        JOINT FootLeft
        {
          OFFSET 2.963819 -4.662116 -9.033358
          CHANNELS 3 Zrotation Xrotation Yrotation
          End Site
          {
            OFFSET 0 0 0
          }
        }
      }
    }
  }
  JOINT HipRight
  {
    OFFSET 4.537281 1.538705 -7.268653
    CHANNELS 3 Zrotation Xrotation Yrotation
    JOINT KneeRight
    {
      OFFSET -17.184664 -36.273624 -3.491723
      CHANNELS 3 Zrotation Xrotation Yrotation
      JOINT AnkleRight
      {
        OFFSET -0.365721 -39.971463 -0.601316
        CHANNELS 3 Zrotation Xrotation Yrotation
        JOINT FootRight
        {
          OFFSET 2.412771 -4.887360 -5.386210
          CHANNELS 3 Zrotation Xrotation Yrotation
          End Site
          {
            OFFSET 0 0 0
          }
        }
      }
    }
  }
}
MOTION
Frames: 15
Frame Time: 0.033333
6.397530 82.461137 291.025912 -4.990137 1.058352 38.886051 0.106946 -1.680882 -38.925363 0.980307 -0.520814 -0.081037 12.782900 -3.121520 -3.538223 0.000000 0.000000 0.000000 -44.270643 32.277774 2.602278 4.662762 -4.385689 9.093828 74.671933 -19.445043 35.687328 -42.698860 -9.788157 -10.040358 0.000000 0.000000 0.000000 0.000000 0.000000 0.000000 -5.706127 0.431501 2.506714 7.615644 -4.163935 0.029622 2.761068 17.400114 -5.193583 4.407612 -17.594621 6.256022 0.000000 0.000000 0.000000 0.000000 0.000000 0.000000 8.578596 -11.020281 -38.462680 -9.320819 3.977282 0.586736 0.083094 -4.563180 -0.482360 0.000000 0.000000 0.000000 7.530757 -9.015504 -38.252102 -5.237975 1.471357 0.032791 11.542973 13.542325 -7.449769 0.000000 0.000000 0.000000
6.465523 82.452713 290.888493 -4.875302 1.111713 39.010670 0.036248 -1.639164 -39.049441 0.960698 -0.522465 -0.080805 13.046758 -3.389164 -3.603515 0.000000 0.000000 0.000000 -44.590223 32.474384 2.972203 6.774851 -4.991434 10.254457 70.640330 -21.299328 34.030814 -38.743120 -11.131207 -10.770501 0.000000 0.000000 0.000000 0.000000 0.000000 0.000000 -5.521857 0.477141 2.434963 7.811029 -3.914190 -0.134033 2.916928 17.473250 -4.922416 4.052351 -17.391039 5.873599 0.000000 0.000000 0.000000 0.000000 0.000000 0.000000 8.311918 -10.934660 -38.605523 -9.068344 3.847692 0.581207 2.229991 -2.031119 -3.236816 0.000000 0.000000 0.000000 7.203686 -9.020394 -38.328238 -5.240766 1.851922 -0.038417 7.795817 7.849877 -5.658431 0.000000 0.000000 0.000000
6.584407 82.441816 290.764068 -4.724400 1.170669 39.105668 -0.047892 -1.617111 -39.144158 0.940960 -0.535878 -0.079052 13.334843 -3.560450 -3.713646 0.000000 0.000000 0.000000 -45.170457 32.835797 3.638019 7.882635 -5.997149 9.691192 71.109724 -20.196114 33.744293 -40.647059 -12.815524 -10.992229 0.000000 0.000000 0.000000 0.000000 0.000000 0.000000 -5.325732 0.535634 2.353696 7.937111 -3.746963 -0.232610 2.422266 17.031969 -4.642483 3.851377 -16.370942 5.318640 0.000000 0.000000 0.000000 0.000000 0.000000 0.000000 7.969509 -10.741583 -38.727501 -8.727262 3.670988 0.566435 3.074976 -1.893457 -5.058784 0.000000 0.000000 0.000000 6.795053 -8.920103 -38.392434 -4.907170 1.736152 -0.107566 8.065904 8.597386 -5.852148 0.000000 0.000000 0.000000
6.752658 82.416518 290.631819 -4.528722 1.227632 39.067619 -0.125339 -1.590449 -39.105217 0.923951 -0.547390 -0.075514 13.514985 -3.756107 -3.795093 0.000000 0.000000 0.000000 -45.899342 33.257987 4.448214 7.490006 -7.243433 7.147849 77.148365 -15.376576 33.395857 -49.093150 -14.647496 -9.375373 0.000000 0.000000 0.000000 0.000000 0.000000 0.000000 -5.247932 0.632317 2.282908 8.057495 -3.708866 -0.280533 1.573485 16.598886 -4.472756 4.464381 -15.179658 5.028777 0.000000 0.000000 0.000000 0.000000 0.000000 0.000000 7.548543 -10.459648 -38.725122 -8.278876 3.472158 0.547934 2.465312 -1.347021 -3.962803 0.000000 0.000000 0.000000 6.311028 -8.693700 -38.338361 -4.572470 1.824870 -0.177185 3.414516 1.987426 -3.940673 0.000000 0.000000 0.000000
6.909491 82.384475 290.510352 -4.352821 1.268528 39.082179 -0.186590 -1.572087 -39.119003 0.911148 -0.560053 -0.071723 13.742675 -3.797304 -3.926522 0.000000 0.000000 0.000000 -46.664949 33.693854 5.308538 8.621625 -8.103010 6.943596 76.223426 -15.743079 34.282003 -50.294486 -12.218744 -9.663696 0.000000 0.000000 0.000000 0.000000 0.000000 0.000000 -5.211838 0.741038 2.223325 8.130220 -3.792782 -0.258194 0.786448 16.325602 -4.417931 4.845427 -14.575642 4.959014 0.000000 0.000000 0.000000 0.000000 0.000000 0.000000 7.147393 -10.217367 -38.772689 -7.917643 3.362054 0.529416 1.507262 -1.523688 -2.516766 0.000000 0.000000 0.000000 5.874414 -8.475578 -38.342262 -4.184786 1.738080 -0.237270 3.305007 2.207271 -3.893950 0.000000 0.000000 0.000000
7.058787 82.374718 290.412864 -4.196503 1.282326 39.050517 -0.223916 -1.561002 -39.086645 0.900875 -0.570174 -0.067614 14.021704 -3.771249 -4.095030 0.000000 0.000000 0.000000 -47.387142 34.091040 6.109583 9.578689 -9.166355 6.255828 75.260736 -15.535209 34.552164 -49.840106 -11.374343 -10.158567 0.000000 0.000000 0.000000 0.000000 0.000000 0.000000 -5.193222 0.850048 2.170356 8.105702 -3.917151 -0.194081 -0.147467 15.715906 -4.370644 5.885007 -13.694291 5.087911 0.000000 0.000000 0.000000 0.000000 0.000000 0.000000 6.813330 -9.972134 -38.771015 -7.635856 3.282452 0.509536 -1.548577 -4.328915 1.492060 0.000000 0.000000 0.000000 5.506183 -8.235672 -38.309391 -3.739735 1.440306 -0.283479 4.912856 5.203872 -4.569000 0.000000 0.000000 0.000000
7.136299 82.375090 290.318655 -4.109502 1.267564 39.148667 -0.226676 -1.557846 -39.184139 0.894443 -0.568968 -0.064631 14.272917 -3.604600 -4.266086 0.000000 0.000000 0.000000 -47.929642 34.383488 6.712305 10.383218 -10.123578 5.617262 73.811972 -15.473844 34.504747 -48.455067 -11.895532 -11.029173 0.000000 0.000000 0.000000 0.000000 0.000000 0.000000 -5.140970 0.874596 2.130227 7.961134 -4.055114 -0.080904 -0.777121 15.398041 -4.435793 6.227176 -13.926655 5.500606 0.000000 0.000000 0.000000 0.000000 0.000000 0.000000 6.600638 -9.839078 -38.889214 -7.521487 3.256644 0.493838 -6.568046 -9.897531 8.667877 0.000000 0.000000 0.000000 5.288149 -8.148661 -38.387362 -3.351604 0.963455 -0.326760 7.781156 10.180407 -5.983098 0.000000 0.000000 0.000000
7.126680 82.392721 290.248581 -4.113695 1.223881 39.348212 -0.194156 -1.568497 -39.383386 0.894130 -0.560714 -0.063327 14.478445 -3.373391 -4.411503 0.000000 0.000000 0.000000 -48.215766 34.542073 7.024278 10.826732 -10.653988 5.281430 72.274715 -15.806347 34.582877 -46.622096 -11.394342 -11.602628 0.000000 0.000000 0.000000 0.000000 0.000000 0.000000 -5.035883 0.850490 2.099587 7.854832 -4.054154 -0.035409 -1.822224 14.912161 -4.477927 6.734688 -13.559863 5.704666 0.000000 0.000000 0.000000 0.000000 0.000000 0.000000 6.565292 -9.817509 -39.095952 -7.590588 3.242617 0.482494 -11.379996 -17.638654 15.763642 0.000000 0.000000 0.000000 5.278588 -8.201081 -38.565432 -3.129649 0.402520 -0.344082 13.090761 18.205061 -8.875977 0.000000 0.000000 0.000000
7.093646 82.414204 290.163660 -4.135407 1.185181 39.639356 -0.166323 -1.578323 -39.674470 0.891530 -0.549179 -0.062928 14.845982 -3.074725 -4.627726 0.000000 0.000000 0.000000 -48.179945 34.513831 6.930899 10.851315 -10.637453 5.344711 71.097899 -16.398029 34.772289 -43.987450 -10.863321 -12.119131 0.000000 0.000000 0.000000 0.000000 0.000000 0.000000 -4.894003 0.760626 2.074075 7.692987 -3.969128 -0.010003 -2.594961 14.425564 -4.497444 7.930340 -13.880888 6.464220 0.000000 0.000000 0.000000 0.000000 0.000000 0.000000 6.531356 -9.857192 -39.391812 -7.716827 3.255669 0.471983 -11.236408 -17.830914 15.619690 0.000000 0.000000 0.000000 5.277228 -8.354510 -38.810624 -2.976434 -0.063472 -0.378929 16.065169 22.242341 -10.969134 0.000000 0.000000 0.000000
7.016618 82.444108 290.077552 -4.198759 1.163387 40.015532 -0.136410 -1.593595 -40.050521 0.887712 -0.536757 -0.063991 15.296777 -2.884676 -4.840968 0.000000 0.000000 0.000000 -47.739429 34.251878 6.346364 10.395200 -9.989650 5.873469 70.569765 -17.210797 35.284073 -42.194953 -9.441536 -12.286205 0.000000 0.000000 0.000000 0.000000 0.000000 0.000000 -4.777517 0.683861 2.061114 7.628541 -3.923285 0.005192 -3.424667 13.956272 -4.521948 8.471864 -13.644147 6.704650 0.000000 0.000000 0.000000 0.000000 0.000000 0.000000 6.556681 -10.025193 -39.763544 -7.981170 3.353209 0.467946 -6.006490 -10.782975 7.786678 0.000000 0.000000 0.000000 5.327535 -8.639858 -39.120609 -3.207702 0.208318 -0.431132 15.231468 20.193402 -10.747456 0.000000 0.000000 0.000000
6.933595 82.477720 289.998020 -4.256036 1.143928 40.411336 -0.116478 -1.607239 -40.446484 0.886587 -0.525593 -0.064983 15.707430 -2.680309 -5.042180 0.000000 0.000000 0.000000 -47.612509 34.184119 6.190542 10.387334 -9.939173 5.952831 70.054079 -17.559538 35.871506 -41.897190 -8.380677 -12.646152 0.000000 0.000000 0.000000 0.000000 0.000000 0.000000 -4.662694 0.607728 2.049265 7.540576 -3.893862 0.034089 -4.102282 13.458670 -4.540670 8.922082 -12.092903 6.221642 0.000000 0.000000 0.000000 0.000000 0.000000 0.000000 6.583663 -10.206168 -40.154615 -8.163454 3.438984 0.473562 -0.883705 -4.979883 0.843567 0.000000 0.000000 0.000000 5.379074 -8.931114 -39.452879 -3.583741 0.743924 -0.480613 10.016034 12.809219 -7.861098 0.000000 0.000000 0.000000
6.836694 82.503087 289.935561 -4.322172 1.119960 40.822865 -0.097165 -1.613176 -40.858427 0.878524 -0.510863 -0.066866 16.135575 -2.499380 -5.237094 0.000000 0.000000 0.000000 -47.473789 34.121153 6.059140 10.390330 -9.914974 5.999179 69.271015 -17.891060 35.841836 -41.406239 -7.985236 -12.761991 0.000000 0.000000 0.000000 0.000000 0.000000 0.000000 -4.542207 0.549326 2.038599 7.459094 -3.911310 0.080022 -4.431480 13.189951 -4.565181 9.489810 -11.464145 6.174672 0.000000 0.000000 0.000000 0.000000 0.000000 0.000000 6.656315 -10.373401 -40.559139 -8.331176 3.451399 0.480303 4.307826 -0.339231 -5.924246 0.000000 0.000000 0.000000 5.455709 -9.215766 -39.810465 -4.131579 1.624427 -0.516795 1.085639 -3.205228 -5.016049 0.000000 0.000000 0.000000
6.766561 82.533727 289.888799 -4.359528 1.107605 41.158871 -0.097509 -1.613038 -41.195045 0.878102 -0.506654 -0.068011 16.526509 -2.426729 -5.403013 0.000000 0.000000 0.000000 -47.394737 34.089003 5.986697 10.420276 -9.946235 5.986590 69.063480 -18.067647 36.597831 -41.158802 -7.374375 -13.344794 0.000000 0.000000 0.000000 0.000000 0.000000 0.000000 -4.481818 0.522841 2.036367 7.462794 -4.005775 0.141823 -4.533996 12.781064 -4.528675 9.526357 -10.775340 5.935495 0.000000 0.000000 0.000000 0.000000 0.000000 0.000000 6.688386 -10.492871 -40.891162 -8.412836 3.428324 0.486742 4.635397 0.110519 -6.249523 0.000000 0.000000 0.000000 5.482225 -9.442332 -40.099485 -4.639963 2.518343 -0.546268 -8.700973 -20.966133 -4.738613 0.000000 0.000000 0.000000
6.685816 82.550076 289.862626 -4.410266 1.060827 41.338437 -0.067328 -1.639697 -41.375374 0.894693 -0.496185 -0.067298 16.712278 -2.340864 -5.507450 0.000000 0.000000 0.000000 -47.344938 34.070124 5.952114 10.413910 -9.966280 5.941645 69.062008 -17.948374 36.542448 -41.246269 -7.020327 -13.204867 0.000000 0.000000 0.000000 0.000000 0.000000 0.000000 -4.454791 0.547809 2.029483 7.395260 -4.058380 0.189074 -4.451291 12.988599 -4.586649 9.594533 -10.588219 5.824227 0.000000 0.000000 0.000000 0.000000 0.000000 0.000000 6.778966 -10.608221 -41.066469 -8.492796 3.409889 0.496940 2.171578 -2.100238 -3.244908 0.000000 0.000000 0.000000 5.617251 -9.580963 -40.264986 -5.091593 3.182828 -0.535956 -15.439851 -31.869793 -6.410843 0.000000 0.000000 0.000000
6.658574 82.577989 289.851293 -4.379819 1.023305 41.391655 -0.098908 -1.649549 -41.430805 0.903955 -0.502695 -0.065946 16.873287 -2.232114 -5.616789 0.000000 0.000000 0.000000 -47.315462 34.075417 5.967462 10.369941 -9.961641 5.887004 69.308767 -17.790094 36.724263 -42.181803 -7.021244 -13.207650 0.000000 0.000000 0.000000 0.000000 0.000000 0.000000 -4.484660 0.638533 2.032246 7.304047 -4.073565 0.207693 -4.231629 13.136349 -4.619699 9.339740 -11.070843 5.959848 0.000000 0.000000 0.000000 0.000000 0.000000 0.000000 6.783149 -10.637328 -41.124374 -8.542020 3.477897 0.505224 -5.537640 -8.250196 8.619752 0.000000 0.000000 0.000000 5.626252 -9.586339 -40.312623 -5.185821 3.248808 -0.539594 -8.820733 -22.761366 -5.269218 0.000000 0.000000 0.000000
